<svg width="100" height="100" viewBox="0 0 100 100" fill="none" xmlns="http://www.w3.org/2000/svg">
<path d="M60.5773 33.9953L34.061 60.5116L39.5537 66.0042L66.0699 39.488L60.5773 33.9953Z" stroke="#1F93BF" stroke-width="2" stroke-miterlimit="10" stroke-linejoin="round"/>
<path d="M46.719 73.1698C48.3261 74.7769 48.3261 77.5894 46.719 79.1966L44.9779 80.9376C43.3707 82.5448 40.5582 82.5448 38.9511 80.9376L19.1297 61.1162C17.5225 59.5091 17.5225 56.6966 19.1297 55.0894L20.8707 53.3484C22.4779 51.7412 25.2904 51.7412 26.8975 53.3484L46.719 73.1698Z" stroke="#1F93BF" stroke-width="2" stroke-miterlimit="10" stroke-linejoin="round"/>
<path d="M33.5937 75.5804C35.2008 77.1875 35.6026 79.5982 34.3973 80.9375C33.1919 82.1429 30.7812 81.875 29.0401 80.1339L20.0669 71.1607C18.4598 69.5536 18.058 67.1429 19.2633 65.8036C20.4687 64.5982 22.8794 64.8661 24.6205 66.6072L33.5937 75.5804Z" stroke="#1F93BF" stroke-width="2" stroke-miterlimit="10" stroke-linejoin="round"/>
<path d="M24.487 75.5805L21.9424 78.1252" stroke="#1F93BF" stroke-width="2" stroke-miterlimit="10" stroke-linejoin="round"/>
<path d="M53.4158 26.8304C51.8087 25.2232 51.8087 22.4107 53.4158 20.8036L55.1569 19.0625C56.764 17.4554 59.5765 17.4554 61.1837 19.0625L80.8712 38.75C82.4783 40.3571 82.4783 43.1696 80.8712 44.7768L79.1301 46.5179C77.523 48.125 74.7105 48.125 73.1033 46.5179L53.4158 26.8304Z" stroke="#1F93BF" stroke-width="2" stroke-miterlimit="10" stroke-linejoin="round"/>
<path d="M66.5401 24.4195C64.9329 22.8124 64.5311 20.4017 65.7365 19.0624C66.9419 17.857 69.3526 18.1249 71.0936 19.866L80.0669 28.8392C81.674 30.4463 82.0758 32.857 80.8704 34.1963C79.6651 35.4017 77.2544 35.1338 75.5133 33.3928L66.5401 24.4195Z" stroke="#1F93BF" stroke-width="2" stroke-miterlimit="10" stroke-linejoin="round"/>
<path d="M75.6479 24.4196L78.1926 21.875" stroke="#1F93BF" stroke-width="2" stroke-miterlimit="10" stroke-linejoin="round"/>
</svg>
